<svg id="svg" version="1.1" xmlns="http://www.w3.org/2000/svg" xmlns:xlink="http://www.w3.org/1999/xlink" width="400" height="49.63503649635037" viewBox="0, 0, 400,49.63503649635037"><g id="svgg"><path id="path0" d="M131.095 14.923 C 130.827 15.063,130.498 15.333,130.365 15.523 C 130.232 15.713,129.865 15.976,129.550 16.108 C 129.233 16.240,128.851 16.579,128.696 16.864 C 128.543 17.148,128.201 17.576,127.937 17.815 C 127.674 18.054,127.327 18.550,127.166 18.917 C 126.818 19.713,126.299 20.291,125.476 20.798 C 123.830 21.812,123.581 24.609,125.012 26.012 C 125.372 26.365,125.667 26.752,125.667 26.873 C 125.667 26.994,125.829 27.203,126.027 27.338 C 126.673 27.777,127.000 28.160,127.000 28.480 C 127.000 29.003,127.484 29.987,127.849 30.208 C 128.039 30.323,128.336 30.692,128.510 31.028 C 128.684 31.364,129.037 31.789,129.295 31.973 C 129.608 32.195,129.861 32.615,130.055 33.231 C 130.216 33.739,130.419 34.200,130.507 34.254 C 131.028 34.577,129.925 34.643,122.958 34.705 C 113.588 34.789,113.584 34.790,112.557 36.958 C 112.329 37.440,112.058 37.833,111.954 37.833 C 111.850 37.833,111.293 38.334,110.715 38.947 C 109.332 40.415,109.103 41.203,109.561 42.924 C 110.028 44.677,110.582 45.092,112.227 44.921 C 112.790 44.863,118.500 44.763,124.917 44.699 C 138.180 44.567,138.258 44.574,139.011 45.812 C 139.198 46.118,139.479 46.403,139.637 46.444 C 139.795 46.485,140.073 46.795,140.254 47.133 C 140.435 47.470,140.789 47.845,141.041 47.965 C 141.388 48.131,141.524 48.343,141.604 48.842 L 141.709 49.500 149.794 49.500 L 157.879 49.500 157.769 48.542 C 157.645 47.454,157.207 46.000,157.005 46.000 C 156.698 46.000,154.842 44.049,154.738 43.617 C 154.677 43.360,154.342 42.921,153.994 42.642 C 153.646 42.362,153.319 41.972,153.268 41.775 C 153.217 41.578,152.927 41.249,152.623 41.044 C 152.223 40.775,151.984 40.416,151.755 39.742 C 151.581 39.230,151.246 38.647,151.011 38.446 C 150.776 38.245,150.453 37.799,150.293 37.454 C 150.133 37.109,149.825 36.746,149.608 36.647 C 149.391 36.549,149.093 36.216,148.946 35.908 C 148.799 35.600,148.462 35.236,148.196 35.099 C 147.923 34.958,147.626 34.610,147.511 34.300 C 147.156 33.334,146.798 32.689,146.570 32.601 C 146.448 32.554,146.194 32.214,146.005 31.844 C 145.817 31.474,145.480 31.052,145.256 30.905 C 145.033 30.759,144.697 30.327,144.511 29.945 C 144.325 29.563,143.976 29.025,143.737 28.750 C 143.497 28.475,143.148 27.950,142.962 27.583 C 142.775 27.217,142.407 26.737,142.144 26.517 C 141.882 26.298,141.667 26.020,141.667 25.900 C 141.667 25.658,140.900 24.833,140.675 24.833 C 140.596 24.833,140.344 24.515,140.115 24.125 C 139.886 23.735,139.532 23.229,139.328 23.000 C 139.124 22.771,138.849 22.321,138.716 22.000 C 138.584 21.679,138.254 21.192,137.984 20.917 C 137.714 20.642,137.324 20.154,137.118 19.833 C 136.911 19.512,136.578 19.177,136.379 19.089 C 136.152 18.988,135.935 18.654,135.800 18.199 C 135.666 17.746,135.293 17.171,134.812 16.677 C 134.386 16.240,133.989 15.729,133.930 15.541 C 133.691 14.789,132.042 14.430,131.095 14.923 M6.659 16.001 C 5.918 16.072,5.095 16.272,4.659 16.487 C 2.411 17.596,1.909 17.930,1.587 18.532 C 1.406 18.871,1.083 19.227,0.870 19.324 C 0.050 19.698,-0.000 20.149,-0.000 27.153 C 0.000 34.058,0.015 34.200,0.821 34.741 C 1.077 34.914,1.419 35.300,1.580 35.599 C 1.741 35.898,2.094 36.234,2.363 36.346 C 2.633 36.457,3.041 36.795,3.270 37.095 C 4.051 38.119,3.370 38.076,19.792 38.130 L 34.833 38.178 34.833 39.423 L 34.833 40.667 17.937 40.667 C 8.645 40.667,0.804 40.714,0.513 40.772 L -0.017 40.878 0.033 44.842 C 0.083 48.792,0.085 48.807,0.484 49.153 L 0.884 49.500 22.768 49.500 L 44.651 49.500 44.951 49.057 C 45.115 48.814,45.573 48.305,45.967 47.926 C 46.618 47.301,46.701 47.129,46.857 46.077 C 46.952 45.438,47.229 44.542,47.473 44.083 C 48.260 42.605,48.201 35.895,47.393 34.981 C 47.262 34.832,47.080 34.232,46.989 33.647 C 46.715 31.900,46.321 31.024,45.718 30.818 C 45.609 30.780,45.344 30.488,45.129 30.167 C 44.656 29.462,44.122 29.185,42.970 29.049 C 42.344 28.975,41.993 28.830,41.717 28.532 C 40.880 27.629,40.748 27.620,25.792 27.542 L 12.000 27.469 12.000 26.901 L 12.000 26.333 27.625 26.332 C 45.013 26.331,44.125 26.391,45.299 25.153 C 47.146 23.206,47.075 21.089,45.107 19.421 C 44.727 19.099,44.154 18.577,43.833 18.260 C 43.512 17.943,42.931 17.559,42.542 17.407 C 42.152 17.255,41.833 17.065,41.833 16.985 C 41.833 16.621,40.420 16.150,38.873 16.000 C 37.003 15.818,8.556 15.819,6.659 16.001 M58.333 16.011 C 56.929 16.288,56.366 16.667,55.871 17.667 L 55.417 18.583 55.372 34.042 L 55.327 49.500 62.056 49.500 L 68.785 49.500 68.891 48.375 C 68.950 47.756,68.998 45.512,68.999 43.387 L 69.000 39.524 82.792 39.454 C 97.415 39.380,97.564 39.372,98.605 38.578 C 98.895 38.357,99.494 38.095,99.936 37.996 C 100.988 37.760,101.760 37.270,102.026 36.668 C 102.144 36.402,102.407 36.095,102.609 35.986 C 103.736 35.383,104.038 33.379,103.960 27.021 C 103.887 21.058,103.796 20.500,102.702 19.349 C 102.362 18.991,101.913 18.471,101.705 18.194 C 101.412 17.804,101.110 17.643,100.372 17.485 C 99.747 17.352,99.240 17.117,98.906 16.805 C 98.625 16.542,98.137 16.238,97.823 16.128 C 97.125 15.885,59.535 15.773,58.333 16.011 M166.381 16.001 C 165.019 16.120,164.313 16.402,163.886 16.999 C 163.777 17.151,163.289 17.365,162.802 17.474 C 161.591 17.745,161.103 18.206,160.657 19.500 C 160.452 20.096,160.137 20.687,159.958 20.813 C 159.086 21.428,159.087 21.418,159.035 33.050 C 158.982 44.741,159.014 45.286,159.818 46.295 C 160.090 46.637,160.472 47.346,160.667 47.871 C 161.340 49.684,158.766 49.500,183.402 49.500 C 206.992 49.500,205.390 49.570,205.827 48.515 C 205.941 48.241,206.212 47.899,206.430 47.757 C 207.475 47.072,207.893 43.230,207.075 41.833 C 206.404 40.688,207.474 40.759,189.333 40.667 C 174.839 40.593,172.926 40.554,173.000 40.333 C 173.046 40.196,173.104 36.990,173.129 33.208 L 173.174 26.333 189.368 26.333 C 208.997 26.333,207.234 26.642,207.452 23.167 C 207.584 21.064,207.310 19.964,206.488 19.303 C 206.128 19.014,205.833 18.684,205.833 18.570 C 205.833 18.294,204.877 17.500,204.545 17.500 C 204.400 17.500,204.049 17.324,203.766 17.108 C 202.802 16.376,202.169 16.158,200.542 16.000 C 198.675 15.818,168.462 15.819,166.381 16.001 M218.516 16.019 C 216.306 16.392,216.083 16.864,216.083 21.167 C 216.083 24.800,216.206 25.323,217.195 25.907 C 217.694 26.202,217.704 26.227,217.401 26.441 C 215.966 27.456,216.000 27.146,216.000 39.157 L 216.000 49.500 239.312 49.500 L 262.623 49.500 262.726 48.875 C 262.889 47.892,262.851 44.308,262.671 43.681 C 262.436 42.861,261.468 42.018,260.000 41.352 C 259.702 41.216,255.483 41.151,245.177 41.123 L 230.770 41.083 230.790 38.833 L 230.810 36.583 238.877 36.500 L 246.943 36.417 247.531 35.968 C 247.855 35.721,248.245 35.271,248.398 34.968 C 248.551 34.665,248.737 34.304,248.812 34.167 C 248.887 34.029,249.035 33.749,249.141 33.544 C 249.381 33.078,249.404 29.063,249.167 28.917 C 249.075 28.860,249.000 28.665,249.000 28.484 C 249.000 28.129,248.637 27.474,248.107 26.875 L 247.775 26.500 253.513 26.497 C 263.199 26.491,262.917 26.651,262.917 21.167 C 262.917 17.224,262.825 16.857,261.699 16.302 L 260.917 15.917 240.167 15.892 C 228.307 15.878,219.031 15.932,218.516 16.019 M272.667 15.945 C 270.921 16.224,270.219 16.967,270.057 18.710 C 269.923 20.145,270.475 21.667,271.129 21.667 C 271.225 21.667,271.632 21.987,272.034 22.377 C 272.505 22.836,273.059 23.176,273.591 23.336 C 274.124 23.496,274.472 23.710,274.574 23.941 C 274.660 24.138,274.960 24.432,275.241 24.595 C 275.521 24.757,275.995 25.172,276.294 25.516 C 276.616 25.886,277.058 26.189,277.377 26.258 C 277.674 26.323,278.163 26.591,278.463 26.854 C 278.763 27.116,279.296 27.477,279.646 27.656 C 279.996 27.835,280.412 28.179,280.571 28.421 C 280.729 28.663,281.116 28.968,281.430 29.099 C 281.743 29.231,282.000 29.408,282.000 29.495 C 282.000 29.791,282.819 30.470,283.307 30.577 C 283.575 30.636,284.084 30.931,284.439 31.233 C 285.605 32.226,287.232 32.411,288.250 31.665 C 288.342 31.598,288.717 31.448,289.083 31.332 C 289.450 31.215,290.027 30.872,290.366 30.569 C 290.704 30.266,291.277 29.938,291.638 29.841 C 292.063 29.727,292.449 29.463,292.728 29.097 C 293.040 28.689,293.340 28.500,293.804 28.422 C 294.177 28.359,294.766 28.054,295.206 27.698 C 295.623 27.360,296.189 26.960,296.465 26.809 C 296.804 26.624,297.006 26.354,297.089 25.976 C 297.264 25.176,297.853 24.374,298.225 24.429 C 298.458 24.464,298.512 24.395,298.446 24.145 C 298.374 23.871,298.401 23.849,298.602 24.015 C 298.810 24.188,298.819 24.149,298.662 23.733 C 298.353 22.914,297.497 22.175,296.533 21.895 C 296.044 21.753,295.405 21.429,295.114 21.175 C 294.822 20.921,294.345 20.591,294.055 20.442 C 293.764 20.293,293.365 19.946,293.169 19.670 C 292.972 19.393,292.639 19.124,292.428 19.071 C 292.217 19.018,291.876 18.748,291.671 18.470 C 291.466 18.193,290.975 17.823,290.579 17.648 C 290.184 17.473,289.555 17.074,289.181 16.762 C 288.758 16.408,288.185 16.127,287.659 16.014 C 286.866 15.844,273.681 15.783,272.667 15.945 M90.333 27.667 L 90.333 29.000 79.667 29.000 L 69.000 29.000 69.000 27.667 L 69.000 26.333 79.667 26.333 L 90.333 26.333 90.333 27.667 M309.069 32.157 C 308.786 32.225,308.478 32.327,308.385 32.385 C 308.292 32.442,307.661 32.573,306.983 32.675 C 305.816 32.850,304.500 33.456,304.500 33.818 C 304.500 33.898,304.219 34.077,303.875 34.215 C 303.531 34.353,302.974 34.717,302.637 35.025 C 302.300 35.332,301.513 35.996,300.887 36.500 C 297.609 39.143,296.952 41.689,299.389 42.311 C 299.776 42.410,300.288 42.708,300.548 42.986 C 300.803 43.259,301.263 43.573,301.569 43.684 C 301.875 43.795,302.256 44.106,302.415 44.375 C 302.574 44.645,302.907 44.952,303.156 45.058 C 303.404 45.163,303.846 45.523,304.139 45.857 C 304.431 46.191,304.876 46.516,305.127 46.579 C 305.547 46.683,306.436 47.266,306.970 47.785 C 307.091 47.903,307.370 48.045,307.589 48.100 C 307.808 48.155,308.033 48.340,308.087 48.512 C 308.411 49.533,308.038 49.500,319.336 49.500 L 329.627 49.500 329.707 48.458 C 329.838 46.747,329.248 45.789,327.648 45.121 C 327.329 44.988,326.935 44.675,326.772 44.426 C 326.609 44.178,326.267 43.901,326.012 43.812 C 325.756 43.723,325.454 43.476,325.340 43.263 C 325.226 43.050,324.859 42.713,324.525 42.513 C 324.190 42.314,323.592 41.892,323.195 41.575 C 322.798 41.259,322.273 40.951,322.029 40.890 C 321.784 40.830,321.271 40.474,320.890 40.099 C 319.715 38.943,318.677 38.086,318.373 38.022 C 318.214 37.988,317.794 37.700,317.440 37.381 C 317.085 37.061,316.513 36.673,316.167 36.519 C 315.821 36.364,315.338 36.000,315.095 35.711 C 314.851 35.421,314.487 35.132,314.284 35.068 C 314.082 35.004,313.640 34.667,313.301 34.319 C 312.902 33.908,312.466 33.644,312.063 33.568 C 311.640 33.489,311.215 33.220,310.735 32.726 C 310.006 31.976,309.932 31.951,309.069 32.157 " stroke="none" fill="#fcfcfc" fill-rule="evenodd"></path><path id="path1" d="M369.954 0.237 C 369.515 0.355,368.978 0.619,368.758 0.825 C 368.392 1.170,368.133 1.211,365.525 1.337 C 362.597 1.478,361.577 1.717,361.021 2.390 C 360.845 2.603,360.502 2.667,359.521 2.668 C 356.630 2.671,354.561 3.105,353.797 3.869 C 353.596 4.071,353.244 4.167,352.708 4.168 C 350.243 4.172,348.607 4.560,347.848 5.318 C 347.612 5.554,347.164 5.634,345.640 5.709 C 343.575 5.810,342.668 6.074,342.158 6.723 C 341.888 7.066,341.663 7.128,340.383 7.212 C 338.724 7.321,338.160 7.491,337.595 8.057 C 337.277 8.374,336.950 8.474,335.909 8.568 C 334.422 8.703,333.569 8.963,332.699 9.548 C 332.258 9.845,331.752 9.994,330.917 10.073 C 329.234 10.233,328.462 10.463,327.844 10.991 C 327.452 11.326,327.053 11.482,326.430 11.547 C 325.475 11.645,324.713 11.952,323.850 12.585 C 323.539 12.813,323.111 13.000,322.900 13.000 C 322.012 13.000,320.844 13.377,320.340 13.827 C 319.968 14.160,319.505 14.356,318.797 14.480 C 317.831 14.650,317.336 14.920,316.878 15.526 C 316.758 15.686,316.302 15.850,315.793 15.917 C 314.786 16.050,313.669 16.496,313.162 16.968 C 312.970 17.147,312.362 17.383,311.812 17.491 C 311.074 17.636,310.644 17.838,310.177 18.261 C 309.828 18.576,309.440 18.834,309.313 18.834 C 308.691 18.837,307.745 19.247,307.176 19.761 C 306.828 20.076,306.381 20.333,306.183 20.333 C 305.655 20.333,304.645 20.792,304.167 21.249 C 303.938 21.468,303.384 21.729,302.937 21.829 C 301.942 22.052,301.540 22.259,301.000 22.828 C 300.733 23.109,300.236 23.349,299.618 23.495 C 298.889 23.667,298.676 23.783,298.747 23.969 C 298.822 24.165,298.794 24.174,298.600 24.014 C 298.402 23.849,298.375 23.872,298.446 24.145 C 298.512 24.395,298.458 24.464,298.225 24.429 C 297.853 24.374,297.264 25.176,297.089 25.976 C 297.006 26.354,296.804 26.624,296.465 26.809 C 296.189 26.960,295.623 27.360,295.206 27.698 C 294.766 28.054,294.177 28.359,293.804 28.422 C 293.340 28.500,293.040 28.689,292.728 29.097 C 292.449 29.463,292.063 29.727,291.638 29.841 C 291.277 29.938,290.704 30.266,290.366 30.569 C 290.027 30.872,289.450 31.215,289.083 31.332 C 288.717 31.448,288.342 31.598,288.250 31.664 C 287.958 31.876,286.603 32.146,286.042 32.104 C 285.744 32.082,285.500 32.113,285.500 32.172 C 285.500 32.391,284.450 33.500,284.242 33.500 C 284.124 33.500,283.642 33.829,283.171 34.231 C 282.700 34.633,282.085 35.008,281.805 35.064 C 281.511 35.123,281.038 35.448,280.686 35.833 C 280.350 36.200,280.003 36.500,279.913 36.500 C 279.824 36.500,279.413 36.856,279.000 37.292 C 278.588 37.727,278.081 38.194,277.874 38.329 C 277.668 38.464,277.460 38.698,277.411 38.850 C 277.363 39.001,277.004 39.247,276.613 39.397 C 276.189 39.558,275.364 40.179,274.576 40.930 C 273.847 41.623,272.936 42.411,272.553 42.679 C 272.169 42.948,271.808 43.317,271.750 43.500 C 271.692 43.683,271.537 43.833,271.407 43.833 C 271.127 43.833,270.167 44.796,270.167 45.077 C 270.167 45.184,269.952 45.476,269.691 45.727 C 268.978 46.409,268.762 47.300,269.091 48.197 C 269.237 48.593,269.397 49.048,269.447 49.208 C 269.533 49.482,270.126 49.500,278.791 49.500 L 288.044 49.500 288.605 48.905 C 288.914 48.577,289.167 48.248,289.167 48.173 C 289.167 48.098,289.335 47.992,289.542 47.939 C 289.748 47.886,290.097 47.575,290.317 47.249 C 290.537 46.923,290.931 46.529,291.192 46.375 C 291.453 46.221,291.710 45.958,291.763 45.791 C 291.816 45.624,292.135 45.313,292.472 45.101 C 292.809 44.888,293.181 44.534,293.299 44.315 C 293.416 44.095,293.737 43.787,294.011 43.629 C 294.285 43.472,294.639 43.116,294.797 42.839 C 294.954 42.562,295.189 42.335,295.318 42.334 C 295.447 42.334,295.866 41.992,296.249 41.575 C 296.717 41.065,297.105 40.800,297.431 40.768 C 297.870 40.723,297.948 40.617,298.248 39.658 C 298.612 38.493,299.020 38.005,300.887 36.500 C 301.513 35.996,302.300 35.332,302.637 35.025 C 302.974 34.717,303.531 34.353,303.875 34.215 C 304.219 34.077,304.500 33.898,304.500 33.818 C 304.500 33.457,305.816 32.851,306.978 32.676 C 307.653 32.574,308.332 32.423,308.488 32.340 C 308.643 32.257,309.065 32.165,309.426 32.136 C 309.966 32.093,310.181 31.961,310.627 31.401 C 310.986 30.951,311.397 30.650,311.833 30.520 C 312.196 30.411,312.777 30.062,313.122 29.745 C 313.467 29.428,313.887 29.168,314.055 29.167 C 314.222 29.167,314.656 28.867,315.020 28.500 C 315.383 28.133,315.840 27.833,316.037 27.833 C 316.576 27.833,317.773 27.201,318.058 26.765 C 318.243 26.484,318.532 26.350,319.128 26.271 C 319.725 26.192,320.130 26.004,320.632 25.574 C 321.010 25.251,321.716 24.868,322.201 24.725 C 322.693 24.578,323.360 24.213,323.709 23.898 C 324.053 23.587,324.454 23.333,324.600 23.333 C 324.986 23.333,325.843 22.898,326.401 22.417 C 326.667 22.188,327.042 21.998,327.234 21.996 C 327.740 21.991,328.989 21.390,329.448 20.931 C 329.685 20.694,330.139 20.492,330.589 20.425 C 331.045 20.356,331.610 20.102,332.045 19.771 C 332.506 19.419,333.104 19.158,333.747 19.029 C 334.501 18.878,334.883 18.690,335.335 18.248 C 335.663 17.928,336.078 17.666,336.257 17.666 C 336.953 17.664,337.916 17.280,338.326 16.841 C 338.664 16.480,338.968 16.356,339.753 16.263 C 341.306 16.078,341.908 15.874,342.463 15.343 C 342.895 14.931,343.197 14.822,344.354 14.664 C 345.780 14.469,346.453 14.214,347.009 13.658 C 347.216 13.451,347.561 13.333,347.964 13.333 C 348.924 13.333,350.251 12.936,350.984 12.428 C 351.462 12.097,351.975 11.930,352.862 11.819 C 354.391 11.627,354.961 11.439,355.545 10.936 C 355.888 10.641,356.297 10.509,357.129 10.424 C 358.767 10.258,359.436 10.046,360.066 9.493 C 360.522 9.093,360.780 8.999,361.439 8.997 C 363.401 8.989,365.470 8.465,365.931 7.860 C 366.060 7.690,366.720 7.585,368.264 7.491 C 370.574 7.350,371.181 7.197,371.833 6.593 C 372.218 6.238,372.448 6.199,374.811 6.095 C 378.020 5.953,379.051 5.767,380.011 5.156 C 380.767 4.674,380.791 4.671,384.550 4.505 C 388.629 4.325,390.334 4.048,391.366 3.396 C 391.921 3.045,392.301 2.984,394.869 2.829 C 397.392 2.676,398.620 2.523,399.708 2.224 C 399.948 2.159,400.000 1.952,400.000 1.072 L 400.000 0.000 385.375 0.011 C 374.015 0.020,370.572 0.070,369.954 0.237 " stroke="none" fill="#de6a1b" fill-rule="evenodd"></path></g></svg>