<svg id="svg" version="1.1" xmlns="http://www.w3.org/2000/svg" xmlns:xlink="http://www.w3.org/1999/xlink" width="400" height="49.63503649635037" viewBox="0, 0, 400,49.63503649635037"><g id="svgg"><path id="path0" d="M131.083 15.320 C 130.899 15.392,130.713 15.657,130.667 15.915 C 130.578 16.412,130.355 16.590,129.627 16.743 C 129.247 16.823,129.152 16.951,129.064 17.503 C 128.975 18.054,128.892 18.167,128.574 18.167 C 128.050 18.167,127.667 18.592,127.667 19.174 C 127.667 19.579,127.580 19.680,127.125 19.796 C 126.708 19.904,126.540 20.068,126.396 20.510 C 126.243 20.976,126.113 21.093,125.700 21.135 C 124.270 21.279,124.234 25.667,125.663 25.667 C 125.889 25.667,126.024 25.812,126.090 26.125 C 126.241 26.842,126.419 27.079,126.850 27.139 C 127.427 27.220,127.473 27.303,127.653 28.572 C 127.821 29.756,127.982 29.993,128.625 29.997 C 128.885 29.999,129.000 30.100,129.000 30.325 C 129.000 30.942,129.364 31.480,129.814 31.533 C 130.212 31.579,130.272 31.688,130.500 32.800 C 130.754 34.034,130.965 34.326,131.607 34.331 C 131.889 34.333,131.978 34.454,132.031 34.908 L 132.098 35.482 123.090 35.543 C 113.775 35.607,113.378 35.635,113.258 36.228 C 113.218 36.424,113.100 36.972,112.996 37.446 L 112.806 38.309 111.681 38.651 L 110.557 38.992 110.278 39.994 C 109.891 41.388,109.994 43.727,110.463 44.197 C 110.590 44.324,114.624 44.368,124.081 44.345 C 138.604 44.311,139.333 44.347,139.333 45.098 C 139.333 45.563,139.746 46.000,140.184 46.000 C 140.363 46.000,140.550 46.131,140.598 46.292 C 140.828 47.063,141.121 47.420,141.589 47.501 C 142.048 47.580,142.094 47.655,142.227 48.543 L 142.371 49.500 149.769 49.500 L 157.167 49.500 157.154 48.375 C 157.136 46.751,156.869 46.120,156.122 45.931 C 155.615 45.803,155.498 45.686,155.380 45.181 C 155.271 44.722,155.144 44.570,154.828 44.525 C 154.358 44.458,154.173 44.235,154.169 43.734 C 154.166 43.305,153.672 42.833,153.225 42.833 C 152.980 42.833,152.851 42.670,152.738 42.214 C 152.615 41.720,152.478 41.564,152.065 41.446 C 151.581 41.308,151.527 41.213,151.249 39.997 C 150.960 38.731,150.936 38.692,150.393 38.590 C 149.912 38.500,149.833 38.418,149.833 38.004 C 149.833 37.418,149.447 37.000,148.905 37.000 C 148.607 37.000,148.500 36.909,148.500 36.656 C 148.500 36.064,148.184 35.685,147.599 35.575 C 147.056 35.473,147.030 35.433,146.918 34.537 C 146.749 33.184,146.591 32.866,146.056 32.804 C 145.687 32.761,145.573 32.643,145.486 32.209 C 145.342 31.502,145.049 31.167,144.574 31.167 C 144.316 31.167,144.156 31.043,144.089 30.792 C 144.034 30.585,143.909 30.117,143.811 29.750 C 143.548 28.759,143.427 28.589,142.942 28.531 C 142.576 28.487,142.500 28.393,142.500 27.989 C 142.500 27.436,141.989 26.833,141.521 26.833 C 141.304 26.833,141.176 26.673,141.103 26.308 C 140.959 25.586,140.710 25.333,140.146 25.333 C 139.748 25.333,139.667 25.264,139.667 24.925 C 139.667 24.700,139.597 24.343,139.512 24.133 C 139.426 23.922,139.312 23.541,139.257 23.287 C 139.183 22.940,139.033 22.798,138.662 22.724 C 138.266 22.645,138.166 22.538,138.161 22.188 C 138.154 21.617,137.868 21.260,137.254 21.056 C 136.880 20.932,136.731 20.757,136.646 20.341 C 136.522 19.737,136.270 19.506,135.730 19.503 C 135.433 19.500,135.359 19.369,135.268 18.680 C 135.078 17.249,134.874 16.859,134.285 16.801 C 133.837 16.757,133.745 16.667,133.645 16.175 C 133.459 15.256,132.267 14.859,131.083 15.320 M6.083 16.683 C 4.014 16.837,3.667 16.979,3.667 17.675 C 3.667 17.867,3.449 17.999,2.964 18.101 C 2.333 18.235,2.247 18.313,2.116 18.870 C 1.991 19.399,1.887 19.506,1.413 19.595 C 0.592 19.749,0.596 19.715,0.535 26.754 C 0.476 33.700,0.504 33.991,1.282 34.364 C 1.539 34.487,1.881 34.868,2.043 35.210 C 2.252 35.655,2.443 35.834,2.710 35.836 C 3.228 35.839,3.456 36.016,3.580 36.509 C 3.817 37.455,3.086 37.412,19.958 37.466 L 35.500 37.514 35.500 39.423 L 35.500 41.332 17.792 41.374 L 0.083 41.417 0.038 44.408 C 0.000 46.846,0.036 47.423,0.227 47.531 C 0.357 47.603,0.515 47.869,0.578 48.122 C 0.737 48.755,0.973 49.000,1.425 49.000 C 1.637 49.000,1.922 49.112,2.060 49.250 C 2.279 49.469,4.794 49.500,22.667 49.500 C 40.540 49.500,43.054 49.469,43.274 49.250 C 43.411 49.112,43.702 49.000,43.919 49.000 C 44.374 49.000,44.833 48.437,44.833 47.880 C 44.833 47.573,44.925 47.500,45.313 47.500 C 45.999 47.500,46.139 47.236,46.267 45.699 C 46.363 44.558,46.429 44.333,46.670 44.333 C 47.358 44.333,47.519 43.598,47.570 40.221 C 47.630 36.265,47.302 34.333,46.571 34.333 C 46.432 34.333,46.324 33.949,46.254 33.208 C 46.112 31.702,45.956 31.374,45.298 31.205 C 44.876 31.097,44.738 30.963,44.698 30.628 C 44.623 29.986,44.328 29.827,42.997 29.716 C 41.859 29.620,41.790 29.591,41.629 29.129 C 41.318 28.237,41.664 28.258,25.958 28.201 L 11.333 28.148 11.333 26.908 L 11.333 25.667 27.708 25.657 L 44.083 25.647 44.821 25.282 C 45.958 24.718,46.422 23.092,45.980 21.211 C 45.717 20.090,45.610 19.928,45.066 19.832 C 44.725 19.772,44.508 19.583,44.319 19.185 C 44.057 18.629,42.893 18.000,42.127 18.000 C 41.956 18.000,41.742 17.771,41.604 17.440 C 41.445 17.059,41.216 16.838,40.893 16.752 C 40.206 16.569,8.466 16.506,6.083 16.683 M57.762 16.729 L 56.441 16.917 56.231 17.917 C 56.072 18.677,56.019 22.588,56.011 34.208 L 56.000 49.500 62.083 49.500 L 68.167 49.500 68.167 44.177 L 68.167 38.853 82.792 38.784 C 98.298 38.711,98.277 38.712,98.526 37.996 C 98.693 37.517,99.167 37.333,100.234 37.333 C 100.932 37.333,101.464 36.937,101.631 36.293 C 101.733 35.896,101.892 35.734,102.277 35.635 C 103.139 35.411,103.251 34.443,103.242 27.333 C 103.233 20.438,103.153 19.822,102.243 19.666 C 101.861 19.601,101.739 19.483,101.699 19.142 C 101.616 18.430,101.160 18.161,99.853 18.051 C 98.791 17.962,98.666 17.915,98.664 17.601 C 98.659 16.872,98.421 16.755,96.715 16.642 C 93.767 16.446,59.212 16.524,57.762 16.729 M166.202 16.647 C 164.403 16.755,164.175 16.863,164.169 17.606 C 164.167 17.921,164.040 17.975,163.042 18.081 C 161.464 18.249,161.412 18.295,161.184 19.710 C 160.995 20.882,160.963 20.942,160.451 21.092 C 159.690 21.317,159.693 21.267,159.679 33.634 C 159.665 45.886,159.725 46.697,160.664 47.024 C 161.038 47.154,161.148 47.318,161.237 47.871 C 161.361 48.646,161.706 48.987,162.375 48.995 C 162.669 48.998,162.833 49.090,162.833 49.250 C 162.833 49.471,165.222 49.500,183.333 49.500 C 201.444 49.500,203.833 49.471,203.833 49.250 C 203.833 49.093,203.992 49.000,204.261 49.000 C 205.000 49.000,205.333 48.713,205.333 48.077 C 205.333 47.583,205.389 47.500,205.724 47.500 C 206.591 47.500,206.750 47.020,206.750 44.405 C 206.750 41.001,209.204 41.425,189.165 41.370 C 172.254 41.324,172.177 41.323,172.505 40.995 C 172.908 40.592,173.030 26.263,172.633 25.867 C 172.478 25.711,176.176 25.667,189.274 25.667 L 206.115 25.667 206.433 25.316 C 207.393 24.254,206.752 19.500,205.648 19.500 C 205.412 19.500,205.333 19.380,205.333 19.020 C 205.333 18.436,205.107 18.232,204.292 18.080 C 203.771 17.982,203.644 17.876,203.531 17.440 C 203.414 16.986,203.298 16.898,202.656 16.775 C 201.797 16.610,168.752 16.494,166.202 16.647 M218.286 16.659 C 217.664 16.724,217.064 16.869,216.953 16.980 C 216.728 17.204,216.562 23.366,216.747 24.615 C 216.926 25.820,215.501 25.750,239.787 25.750 L 261.491 25.750 261.870 25.371 C 262.561 24.680,262.420 17.074,261.710 16.727 C 261.357 16.554,219.903 16.490,218.286 16.659 M272.112 16.668 C 270.802 16.835,270.759 16.902,270.694 18.910 C 270.631 20.824,270.854 21.333,271.754 21.333 C 272.090 21.333,272.196 21.436,272.276 21.839 C 272.401 22.465,272.645 22.597,273.943 22.745 C 274.947 22.860,274.971 22.874,275.075 23.429 C 275.185 24.017,275.563 24.333,276.156 24.333 C 276.406 24.333,276.500 24.440,276.500 24.724 C 276.500 25.248,276.996 25.667,277.617 25.667 C 278.043 25.667,278.140 25.744,278.221 26.145 C 278.316 26.621,278.811 26.873,280.339 27.225 C 280.628 27.291,280.828 27.503,280.969 27.893 C 281.134 28.350,281.289 28.486,281.742 28.571 C 282.198 28.656,282.330 28.773,282.417 29.170 C 282.540 29.728,282.678 29.844,283.391 29.990 C 283.714 30.056,283.993 30.270,284.169 30.588 C 284.320 30.860,284.588 31.106,284.763 31.134 C 284.939 31.161,285.257 31.270,285.470 31.376 C 286.356 31.818,289.502 31.507,289.965 30.932 C 290.475 30.300,291.201 29.833,291.676 29.833 C 292.456 29.833,292.667 29.674,292.667 29.083 C 292.667 28.458,292.868 28.333,293.873 28.333 C 294.451 28.333,294.642 28.235,295.167 27.667 C 295.505 27.300,295.929 27.000,296.109 27.000 C 296.711 27.000,296.963 26.627,297.038 25.625 C 297.124 24.488,297.096 24.526,297.897 24.472 L 298.531 24.430 298.427 23.757 C 298.295 22.905,298.110 22.772,296.689 22.504 C 295.635 22.305,295.524 22.246,295.441 21.832 C 295.350 21.374,294.478 21.000,293.501 21.000 C 293.252 21.000,293.074 20.817,292.889 20.375 C 292.585 19.643,292.412 19.506,291.792 19.503 C 291.429 19.501,291.333 19.422,291.331 19.125 C 291.327 18.539,291.086 18.295,290.403 18.184 C 289.867 18.097,289.750 18.000,289.633 17.551 C 289.481 16.965,289.392 16.921,287.833 16.674 C 286.602 16.479,273.630 16.474,272.112 16.668 M91.000 27.667 L 91.000 29.667 79.583 29.667 L 68.167 29.667 68.167 27.667 L 68.167 25.667 79.583 25.667 L 91.000 25.667 91.000 27.667 M218.357 26.837 C 216.597 27.027,216.756 25.909,216.704 38.425 L 216.658 49.500 239.412 49.500 L 262.167 49.500 262.167 46.504 C 262.167 40.993,263.909 41.500,244.970 41.500 L 230.167 41.500 230.167 38.667 L 230.167 35.833 238.486 35.833 L 246.806 35.833 247.631 35.419 C 248.766 34.849,248.878 34.393,248.806 30.618 C 248.745 27.422,248.751 27.442,247.714 27.022 C 247.008 26.736,220.826 26.571,218.357 26.837 M308.743 32.678 C 308.690 32.763,307.945 32.833,307.086 32.833 C 305.529 32.833,304.500 33.303,304.500 34.013 C 304.500 34.097,304.361 34.167,304.192 34.167 C 303.602 34.167,302.909 34.508,302.747 34.878 C 302.657 35.083,302.358 35.369,302.083 35.514 C 301.808 35.660,301.218 36.110,300.772 36.514 C 300.326 36.919,299.633 37.550,299.231 37.917 L 298.500 38.583 298.479 39.875 C 298.456 41.365,298.618 41.667,299.442 41.667 C 299.838 41.667,300.038 41.755,300.101 41.958 C 300.284 42.551,300.460 42.751,300.850 42.808 C 301.070 42.839,301.325 42.923,301.417 42.994 C 301.508 43.065,301.865 43.174,302.208 43.236 C 302.720 43.328,302.833 43.419,302.833 43.737 C 302.833 44.213,303.117 44.465,303.808 44.603 C 304.215 44.685,304.333 44.795,304.333 45.092 C 304.333 45.554,304.742 46.000,305.165 46.000 C 305.678 46.000,306.000 46.187,306.000 46.484 C 306.000 46.876,306.330 47.167,306.773 47.167 C 306.979 47.167,307.193 47.242,307.250 47.333 C 307.307 47.425,307.530 47.500,307.746 47.500 C 308.413 47.500,308.667 47.680,308.667 48.151 C 308.667 48.726,308.946 49.000,309.533 49.000 C 309.837 49.000,310.000 49.087,310.000 49.250 C 310.000 49.469,311.176 49.500,319.583 49.500 L 329.167 49.500 329.202 48.708 C 329.314 46.182,329.269 46.092,327.753 45.823 C 326.549 45.609,326.500 45.582,326.500 45.139 C 326.500 44.627,326.110 44.333,325.428 44.333 C 325.092 44.333,325.000 44.251,325.000 43.949 C 325.000 43.380,324.640 42.987,324.001 42.856 C 323.546 42.763,323.409 42.637,323.299 42.214 C 323.148 41.633,323.019 41.571,321.625 41.407 C 320.717 41.301,320.667 41.271,320.667 40.835 C 320.667 40.289,320.408 40.040,319.692 39.897 C 319.327 39.824,319.167 39.696,319.167 39.479 C 319.167 39.013,318.565 38.500,318.019 38.500 C 317.602 38.500,317.523 38.423,317.429 37.926 C 317.314 37.313,317.283 37.295,315.825 37.007 C 314.987 36.841,314.884 36.772,314.741 36.287 C 314.614 35.854,314.462 35.720,313.962 35.596 C 313.466 35.474,313.304 35.333,313.160 34.896 C 312.961 34.293,312.844 34.237,311.476 34.076 C 310.632 33.977,310.525 33.921,310.439 33.525 C 310.386 33.282,310.284 33.001,310.213 32.901 C 310.041 32.658,308.866 32.480,308.743 32.678 " stroke="none" fill="#fcfcfc" fill-rule="evenodd"></path><path id="path1" d="M377.500 0.250 C 377.500 0.463,377.069 0.500,374.621 0.500 C 369.991 0.500,368.675 0.743,368.669 1.601 C 368.667 1.944,368.585 1.954,365.252 2.038 C 361.650 2.128,361.333 2.198,361.333 2.913 C 361.333 3.279,361.289 3.286,358.375 3.403 C 354.580 3.555,354.293 3.613,354.098 4.269 L 353.946 4.779 351.216 4.933 C 348.324 5.097,348.175 5.147,348.169 5.958 C 348.167 6.322,348.117 6.333,346.458 6.337 C 343.313 6.343,342.342 6.602,342.336 7.435 C 342.333 7.770,342.231 7.792,340.323 7.870 C 339.151 7.919,338.234 8.032,338.123 8.143 C 338.019 8.248,337.804 8.333,337.645 8.333 C 337.487 8.333,337.213 8.518,337.035 8.743 C 336.767 9.084,336.521 9.169,335.565 9.250 C 333.293 9.443,332.481 9.671,332.309 10.166 C 332.157 10.600,332.099 10.617,330.139 10.809 C 327.815 11.036,327.833 11.029,327.833 11.677 C 327.833 12.157,327.816 12.167,326.958 12.167 C 324.997 12.167,323.509 12.676,323.503 13.350 C 323.501 13.562,323.203 13.647,322.047 13.766 C 320.602 13.916,320.593 13.920,320.442 14.447 C 320.297 14.959,320.252 14.982,319.187 15.083 C 317.862 15.210,316.678 15.642,316.431 16.090 C 316.161 16.578,316.062 16.618,314.772 16.745 C 313.458 16.874,313.167 17.026,313.167 17.582 C 313.167 17.918,313.060 17.969,312.125 18.072 C 310.519 18.249,310.364 18.313,310.248 18.844 C 310.137 19.350,310.189 19.329,308.261 19.627 C 307.540 19.738,307.424 19.813,307.310 20.238 C 307.149 20.840,306.913 20.994,306.146 20.997 C 304.888 21.003,304.516 21.164,304.406 21.748 C 304.308 22.270,304.271 22.292,303.315 22.392 C 301.685 22.563,301.521 22.637,301.405 23.252 C 301.305 23.789,301.273 23.808,300.276 23.923 C 299.712 23.988,299.063 24.119,298.833 24.215 C 298.604 24.311,298.154 24.420,297.833 24.459 C 297.090 24.549,297.123 24.500,297.038 25.625 C 296.963 26.627,296.711 27.000,296.109 27.000 C 295.929 27.000,295.505 27.300,295.167 27.667 C 294.642 28.235,294.451 28.333,293.873 28.333 C 292.868 28.333,292.667 28.458,292.667 29.083 C 292.667 29.674,292.456 29.833,291.676 29.833 C 291.195 29.833,290.473 30.302,289.946 30.956 C 289.769 31.176,289.456 31.335,289.196 31.337 C 288.082 31.345,287.086 31.750,287.031 32.218 C 286.985 32.606,286.902 32.667,286.418 32.667 C 285.771 32.667,285.333 33.028,285.333 33.561 C 285.333 33.880,285.189 33.962,284.292 34.156 C 282.929 34.451,282.667 34.598,282.667 35.071 C 282.667 35.504,282.390 35.667,281.656 35.667 C 281.265 35.667,281.154 35.753,281.073 36.125 C 280.892 36.948,280.849 37.000,280.348 37.000 C 279.816 37.000,279.676 37.138,279.417 37.917 C 279.301 38.264,279.123 38.434,278.833 38.474 C 278.267 38.553,278.029 38.777,277.968 39.292 C 277.922 39.680,277.803 39.751,276.833 39.964 C 276.237 40.095,275.660 40.228,275.551 40.259 C 275.441 40.290,275.302 40.582,275.241 40.908 C 275.147 41.408,275.061 41.500,274.690 41.503 C 274.086 41.506,273.894 41.664,273.764 42.264 C 273.673 42.684,273.539 42.806,273.034 42.931 C 272.508 43.061,272.394 43.173,272.266 43.691 C 272.133 44.230,272.044 44.310,271.477 44.401 C 270.884 44.496,270.829 44.552,270.731 45.165 C 270.637 45.752,270.563 45.838,270.072 45.930 C 269.382 46.059,269.250 46.528,269.413 48.270 L 269.528 49.500 278.348 49.500 C 286.076 49.500,287.167 49.469,287.167 49.250 C 287.167 49.096,287.323 49.000,287.574 49.000 C 288.041 49.000,288.500 48.444,288.500 47.880 C 288.500 47.574,288.592 47.500,288.974 47.500 C 289.523 47.500,290.000 47.049,290.000 46.532 C 290.000 46.278,290.134 46.141,290.458 46.064 C 291.093 45.912,291.278 45.736,291.389 45.178 C 291.462 44.813,291.606 44.670,291.981 44.587 C 292.561 44.460,292.764 44.252,292.921 43.624 C 293.011 43.267,293.135 43.167,293.485 43.167 C 294.055 43.167,294.333 42.888,294.333 42.318 C 294.333 41.873,294.587 41.667,295.139 41.666 C 295.292 41.666,295.739 41.328,296.132 40.916 C 296.905 40.107,297.386 39.975,297.665 40.496 C 298.170 41.440,298.458 41.219,298.479 39.870 L 298.500 38.583 299.231 37.917 C 299.633 37.550,300.326 36.919,300.772 36.514 C 301.218 36.110,301.808 35.660,302.083 35.514 C 302.358 35.369,302.657 35.083,302.747 34.878 C 302.906 34.515,303.600 34.167,304.163 34.167 C 304.318 34.167,304.544 33.980,304.666 33.751 C 305.054 33.027,305.524 32.850,307.193 32.798 L 308.750 32.750 308.713 32.125 C 308.677 31.505,308.681 31.500,309.318 31.500 C 310.019 31.500,310.271 31.300,310.359 30.673 C 310.405 30.345,310.549 30.236,311.083 30.126 C 312.737 29.786,312.971 29.677,313.077 29.197 C 313.160 28.817,313.315 28.696,313.927 28.532 C 314.553 28.365,314.691 28.253,314.772 27.850 C 314.875 27.335,315.286 27.167,316.438 27.167 C 317.065 27.167,317.667 26.686,317.667 26.186 C 317.667 25.827,318.095 25.672,319.103 25.669 C 319.878 25.666,320.667 25.161,320.667 24.668 C 320.667 24.411,320.851 24.340,321.772 24.242 C 322.930 24.117,323.500 23.774,323.500 23.199 C 323.500 22.954,323.735 22.859,324.759 22.687 C 325.870 22.500,326.042 22.423,326.214 22.029 C 326.475 21.435,326.636 21.339,327.380 21.336 C 328.177 21.333,329.167 20.927,329.167 20.604 C 329.167 20.170,329.670 19.833,330.320 19.833 C 331.300 19.833,331.954 19.538,332.137 19.013 C 332.286 18.585,332.387 18.541,333.437 18.433 C 334.680 18.306,335.167 18.012,335.167 17.391 C 335.167 17.036,335.239 17.000,335.958 16.999 C 337.283 16.998,337.997 16.723,338.107 16.174 C 338.202 15.701,338.204 15.700,339.892 15.581 C 341.823 15.445,342.127 15.331,342.363 14.654 C 342.456 14.386,342.619 14.164,342.725 14.161 C 345.556 14.073,346.833 13.688,346.833 12.923 C 346.833 12.781,347.315 12.685,348.375 12.615 C 350.329 12.486,351.000 12.266,351.000 11.753 C 351.000 11.399,351.090 11.365,352.292 11.262 C 354.541 11.069,355.295 10.849,355.475 10.334 C 355.638 9.866,356.498 9.667,358.350 9.667 C 359.246 9.667,359.837 9.354,359.943 8.825 L 360.032 8.380 362.242 8.266 C 365.026 8.121,365.356 8.036,365.646 7.388 L 365.875 6.877 368.429 6.799 C 371.101 6.718,371.393 6.638,371.670 5.909 C 371.799 5.569,371.945 5.548,374.944 5.441 C 378.865 5.300,379.984 5.097,380.196 4.486 C 380.380 3.959,381.355 3.843,385.750 3.823 C 390.063 3.804,391.833 3.442,391.833 2.578 C 391.833 2.443,392.837 2.353,395.208 2.276 C 397.065 2.215,398.902 2.118,399.292 2.061 L 400.000 1.956 400.000 0.978 L 400.000 0.000 388.750 0.000 C 378.861 0.000,377.500 0.030,377.500 0.250 " stroke="none" fill="#de6a1b" fill-rule="evenodd"></path></g></svg>