<svg id="svg" version="1.1" xmlns="http://www.w3.org/2000/svg" xmlns:xlink="http://www.w3.org/1999/xlink" width="400" height="49.63503649635037" viewBox="0, 0, 400,49.63503649635037"><g id="svgg"><path id="path0" d="M130.755 15.535 C 130.714 15.653,130.659 15.975,130.632 16.250 C 130.587 16.710,130.527 16.754,129.875 16.801 C 129.170 16.852,129.167 16.856,129.167 17.510 C 129.167 18.093,129.122 18.167,128.764 18.167 C 128.016 18.167,127.833 18.332,127.833 19.010 C 127.833 19.612,127.797 19.658,127.245 19.762 C 126.637 19.876,126.333 20.229,126.333 20.822 C 126.333 21.102,126.228 21.167,125.770 21.167 C 124.906 21.167,124.816 21.400,124.869 23.524 L 124.917 25.417 125.616 25.467 C 126.308 25.518,126.316 25.525,126.366 26.217 C 126.415 26.890,126.440 26.919,127.023 26.967 L 127.629 27.018 127.746 28.426 L 127.863 29.833 128.505 29.833 C 129.142 29.833,129.148 29.840,129.199 30.542 C 129.250 31.245,129.255 31.250,129.952 31.301 L 130.653 31.352 130.702 32.718 L 130.750 34.083 131.458 34.135 L 132.167 34.186 132.167 34.922 L 132.167 35.659 122.827 35.704 C 112.167 35.756,113.173 35.574,113.169 37.458 L 113.167 38.667 112.358 38.667 C 110.894 38.667,110.547 38.889,110.322 39.971 C 110.124 40.922,110.179 43.783,110.402 44.143 C 110.489 44.283,114.328 44.333,125.010 44.333 L 139.500 44.333 139.500 45.083 L 139.500 45.833 140.157 45.833 C 140.811 45.833,140.814 45.837,140.865 46.542 C 140.916 47.247,140.920 47.250,141.625 47.301 L 142.333 47.352 142.333 48.426 L 142.333 49.500 149.667 49.500 L 157.000 49.500 156.983 48.208 C 156.960 46.375,156.860 46.114,156.114 45.928 C 155.640 45.810,155.469 45.670,155.398 45.345 C 155.226 44.550,155.178 44.500,154.598 44.500 C 154.036 44.500,154.018 44.479,153.968 43.792 C 153.917 43.087,153.913 43.083,153.208 43.032 L 152.500 42.981 152.500 42.240 L 152.500 41.500 151.833 41.500 L 151.167 41.500 151.167 40.604 C 151.167 38.935,151.050 38.667,150.322 38.667 C 149.693 38.667,149.685 38.659,149.635 37.958 C 149.584 37.253,149.580 37.250,148.875 37.199 L 148.167 37.148 148.167 36.407 L 148.167 35.667 147.423 35.667 L 146.680 35.667 146.632 34.292 L 146.583 32.917 145.967 32.865 C 145.373 32.816,145.350 32.790,145.301 32.115 C 145.251 31.426,145.241 31.416,144.565 31.367 L 143.880 31.316 143.769 30.129 C 143.643 28.774,143.484 28.500,142.823 28.500 C 142.389 28.500,142.349 28.445,142.301 27.792 C 142.250 27.087,142.247 27.083,141.542 27.032 L 140.833 26.981 140.833 26.240 L 140.833 25.500 140.083 25.500 L 139.333 25.500 139.333 24.345 C 139.333 23.072,139.109 22.667,138.405 22.667 C 138.069 22.667,138.000 22.584,138.000 22.180 C 138.000 21.342,137.852 21.167,137.149 21.167 L 136.500 21.167 136.500 20.417 L 136.500 19.667 135.750 19.667 L 135.000 19.667 135.000 18.514 C 135.000 16.969,134.932 16.833,134.158 16.833 C 133.526 16.833,133.519 16.826,133.468 16.125 L 133.417 15.417 132.122 15.368 C 131.178 15.332,130.808 15.377,130.755 15.535 M6.667 16.790 C 3.888 16.842,3.667 16.915,3.667 17.772 C 3.667 18.095,3.567 18.155,2.958 18.199 C 2.253 18.250,2.250 18.253,2.199 18.958 C 2.148 19.659,2.141 19.667,1.511 19.667 C 0.650 19.667,0.667 19.517,0.667 27.174 C 0.667 33.819,0.689 34.167,1.124 34.167 C 1.475 34.167,2.167 34.946,2.167 35.342 C 2.167 35.616,2.284 35.667,2.917 35.667 L 3.667 35.667 3.667 36.316 C 3.667 37.224,2.574 37.167,20.014 37.167 L 35.833 37.167 35.833 39.333 L 35.833 41.500 17.917 41.500 L 0.000 41.500 0.000 44.417 C 0.000 47.222,0.013 47.333,0.333 47.333 C 0.591 47.333,0.667 47.444,0.667 47.820 C 0.667 48.658,0.814 48.833,1.518 48.833 C 2.056 48.833,2.167 48.890,2.167 49.167 C 2.167 49.498,2.278 49.500,22.583 49.500 C 42.889 49.500,43.000 49.498,43.000 49.167 C 43.000 48.883,43.111 48.833,43.750 48.833 L 44.500 48.833 44.500 48.093 L 44.500 47.352 45.208 47.301 L 45.917 47.250 45.965 45.792 L 46.013 44.333 46.486 44.333 C 47.387 44.333,47.417 44.178,47.417 39.408 C 47.417 34.628,47.357 34.333,46.397 34.333 C 46.029 34.333,46.011 34.273,45.965 32.875 L 45.917 31.417 45.217 31.366 C 44.525 31.316,44.518 31.308,44.467 30.616 L 44.417 29.917 43.057 29.869 L 41.697 29.820 41.551 29.204 C 41.343 28.326,41.850 28.354,25.542 28.343 L 11.000 28.333 11.000 26.917 L 11.000 25.500 27.625 25.487 C 47.461 25.472,45.836 25.708,45.960 22.833 C 46.058 20.588,45.831 19.973,44.828 19.766 C 44.532 19.705,44.357 19.518,44.244 19.143 C 44.065 18.547,43.376 18.202,42.321 18.179 C 41.775 18.168,41.713 18.115,41.571 17.542 L 41.417 16.917 38.667 16.815 C 35.949 16.714,11.665 16.695,6.667 16.790 M57.919 16.823 L 56.421 16.917 56.304 17.583 C 56.239 17.950,56.182 25.281,56.176 33.875 L 56.167 49.500 62.000 49.500 L 67.833 49.500 67.833 44.001 L 67.833 38.502 83.125 38.459 L 98.417 38.417 98.468 37.792 L 98.520 37.167 99.748 37.167 C 101.136 37.167,101.500 36.956,101.500 36.155 C 101.500 35.734,101.563 35.666,101.958 35.664 C 102.959 35.659,102.912 36.016,102.965 27.951 C 103.018 19.746,103.010 19.667,102.087 19.667 C 101.534 19.667,101.500 19.635,101.500 19.117 C 101.500 18.300,101.262 18.167,99.800 18.167 L 98.500 18.167 98.500 17.526 L 98.500 16.886 95.473 16.776 C 91.910 16.647,60.101 16.687,57.919 16.823 M166.708 16.791 L 164.333 16.842 164.333 17.241 C 164.333 18.070,164.200 18.167,163.055 18.167 C 161.428 18.167,161.333 18.258,161.333 19.830 L 161.333 21.148 160.625 21.199 L 159.917 21.250 159.874 33.335 C 159.826 46.777,159.827 46.783,160.798 47.061 C 161.292 47.203,161.333 47.269,161.333 47.921 C 161.333 48.666,161.530 48.825,162.458 48.831 C 162.721 48.833,162.833 48.933,162.833 49.167 C 162.833 49.498,162.944 49.500,183.250 49.500 C 203.354 49.500,203.667 49.495,203.667 49.176 C 203.667 48.915,203.802 48.843,204.375 48.801 C 205.078 48.750,205.084 48.745,205.134 48.051 C 205.183 47.377,205.206 47.351,205.801 47.301 L 206.417 47.250 206.417 44.417 L 206.417 41.583 188.917 41.499 C 179.292 41.452,171.585 41.396,171.792 41.374 C 172.852 41.259,172.833 41.406,172.833 33.367 C 172.833 25.585,172.846 25.706,172.008 25.626 C 171.775 25.604,179.421 25.548,189.000 25.501 L 206.417 25.417 206.417 22.583 L 206.417 19.750 205.792 19.698 C 205.209 19.650,205.167 19.610,205.167 19.107 C 205.167 18.425,204.910 18.167,204.233 18.167 C 203.754 18.167,203.685 18.103,203.552 17.542 L 203.405 16.917 200.411 16.812 C 197.444 16.709,171.278 16.693,166.708 16.791 M218.250 16.822 L 216.917 16.917 216.872 21.121 L 216.828 25.326 217.205 25.417 C 217.413 25.467,227.558 25.487,239.750 25.462 L 261.917 25.417 261.961 21.151 L 262.006 16.885 259.977 16.776 C 257.549 16.645,220.161 16.687,218.250 16.822 M272.083 16.821 L 270.917 16.917 270.869 18.903 C 270.818 21.078,270.851 21.160,271.782 21.164 C 272.275 21.166,272.317 21.212,272.365 21.792 L 272.417 22.417 273.792 22.465 L 275.167 22.513 275.167 23.257 L 275.167 24.000 275.907 24.000 L 276.648 24.000 276.699 24.708 C 276.750 25.413,276.753 25.417,277.458 25.468 C 278.078 25.513,278.167 25.569,278.167 25.914 C 278.167 26.553,278.579 26.805,279.827 26.927 L 280.982 27.041 281.033 27.646 C 281.081 28.227,281.110 28.252,281.783 28.301 C 282.475 28.351,282.482 28.358,282.533 29.051 C 282.583 29.743,282.590 29.751,283.280 29.801 C 283.896 29.845,283.990 29.907,284.083 30.331 C 284.264 31.157,284.502 31.231,287.229 31.304 C 289.746 31.372,289.757 31.370,289.972 30.978 C 290.308 30.363,291.012 29.931,291.832 29.836 C 292.581 29.750,292.583 29.748,292.635 29.042 L 292.686 28.333 293.619 28.333 C 294.493 28.333,294.590 28.292,295.167 27.667 C 295.505 27.300,295.911 27.000,296.069 27.000 C 296.801 27.000,297.000 26.700,297.000 25.595 L 297.000 24.535 297.665 24.472 C 298.031 24.437,298.369 24.485,298.417 24.579 C 298.464 24.673,298.464 24.375,298.417 23.917 C 298.310 22.881,298.120 22.738,296.664 22.595 C 295.614 22.491,295.500 22.444,295.497 22.115 C 295.492 21.404,295.248 21.261,293.925 21.194 L 292.667 21.130 292.667 20.398 L 292.667 19.667 291.917 19.667 L 291.167 19.667 291.167 19.018 C 291.167 18.314,290.991 18.167,290.153 18.167 C 289.761 18.167,289.666 18.094,289.664 17.792 C 289.659 17.069,289.416 16.929,287.966 16.808 C 286.334 16.672,273.772 16.683,272.083 16.821 M91.167 27.667 L 91.167 29.833 79.500 29.833 L 67.833 29.833 67.833 27.667 L 67.833 25.500 79.500 25.500 L 91.167 25.500 91.167 27.667 M216.948 27.108 C 216.885 27.171,216.833 32.235,216.833 38.361 L 216.833 49.500 239.417 49.500 L 262.000 49.500 262.000 46.339 C 262.000 40.960,263.909 41.500,244.886 41.500 L 230.000 41.500 230.000 38.583 L 230.000 35.667 238.552 35.667 C 248.432 35.667,248.264 35.690,248.657 34.284 C 248.994 33.081,248.836 27.764,248.452 27.381 C 248.145 27.073,217.250 26.806,216.948 27.108 M305.018 33.317 C 304.733 33.583,304.500 33.878,304.500 33.973 C 304.500 34.068,304.163 34.197,303.750 34.259 C 303.162 34.347,302.955 34.466,302.790 34.810 C 302.674 35.051,302.355 35.361,302.081 35.499 C 301.807 35.637,301.267 36.050,300.881 36.417 C 300.495 36.783,299.813 37.401,299.366 37.790 L 298.554 38.496 298.585 39.957 L 298.617 41.417 299.315 41.468 C 299.936 41.514,300.023 41.573,300.110 42.006 C 300.248 42.697,300.457 42.811,301.804 42.937 L 303.000 43.048 303.000 43.691 C 303.000 44.329,303.004 44.333,303.667 44.333 C 304.292 44.333,304.333 44.363,304.333 44.820 C 304.333 45.681,304.474 45.833,305.268 45.833 C 305.963 45.833,306.000 45.857,306.000 46.313 C 306.000 46.984,306.270 47.143,307.629 47.269 L 308.816 47.380 308.867 48.065 C 308.915 48.726,308.939 48.752,309.542 48.802 C 310.031 48.842,310.167 48.923,310.167 49.177 C 310.167 49.493,310.376 49.500,319.667 49.500 L 329.167 49.500 329.164 47.958 C 329.161 46.005,329.156 45.999,327.617 45.882 L 326.351 45.787 326.300 45.185 C 326.253 44.625,326.202 44.573,325.550 44.437 C 324.899 44.300,324.847 44.248,324.800 43.687 C 324.752 43.105,324.724 43.081,324.042 43.032 C 323.385 42.985,323.333 42.946,323.333 42.502 C 323.333 41.723,322.961 41.500,321.655 41.500 L 320.500 41.500 320.500 40.950 C 320.500 40.257,320.246 40.000,319.560 40.000 C 319.056 40.000,319.017 39.958,318.968 39.375 C 318.918 38.772,318.893 38.748,318.228 38.700 C 317.571 38.652,317.535 38.621,317.438 38.010 C 317.316 37.251,317.147 37.167,315.736 37.167 L 314.667 37.167 314.667 36.680 C 314.667 35.842,314.519 35.667,313.816 35.667 C 313.219 35.667,313.166 35.629,313.164 35.208 C 313.160 34.405,312.964 34.286,311.515 34.202 L 310.167 34.124 310.167 33.479 L 310.167 32.833 307.851 32.833 L 305.535 32.833 305.018 33.317 " stroke="none" fill="#fcfcfc" fill-rule="evenodd"></path><path id="path1" d="M377.500 0.313 C 377.500 0.610,377.274 0.630,373.240 0.694 C 368.621 0.768,368.675 0.756,368.669 1.708 L 368.667 2.167 365.200 2.167 C 361.412 2.167,361.333 2.186,361.333 3.117 L 361.333 3.667 357.839 3.667 C 353.995 3.667,354.000 3.665,354.000 4.739 L 354.000 5.167 351.184 5.167 C 348.148 5.167,348.167 5.161,348.167 6.083 L 348.167 6.471 345.410 6.527 C 342.423 6.588,342.341 6.615,342.336 7.542 L 342.333 8.000 340.260 8.000 C 339.057 8.000,338.143 8.070,338.083 8.167 C 338.027 8.258,337.846 8.333,337.683 8.333 C 337.319 8.333,336.833 8.841,336.833 9.221 C 336.833 9.463,336.598 9.502,335.042 9.517 C 332.688 9.538,332.455 9.611,332.263 10.377 L 332.110 10.990 330.013 11.037 L 327.917 11.083 327.865 11.708 L 327.813 12.333 326.532 12.341 C 324.209 12.354,323.508 12.611,323.503 13.452 C 323.500 13.800,323.420 13.823,322.042 13.869 L 320.583 13.917 320.532 14.625 L 320.481 15.333 319.032 15.334 C 317.428 15.334,316.464 15.664,316.356 16.250 C 316.265 16.745,316.034 16.828,314.742 16.831 C 313.445 16.834,313.167 16.987,313.167 17.700 C 313.167 18.161,313.154 18.167,312.125 18.169 C 310.574 18.172,310.388 18.256,310.268 19.008 L 310.165 19.653 308.791 19.702 L 307.417 19.750 307.365 20.458 L 307.314 21.167 305.922 21.167 L 304.529 21.167 304.417 21.833 C 304.313 22.446,304.262 22.500,303.777 22.501 C 303.487 22.502,302.856 22.550,302.375 22.608 L 301.500 22.713 301.500 23.357 L 301.500 24.000 300.458 24.002 C 299.055 24.005,298.668 24.126,298.661 24.561 C 298.657 24.867,298.627 24.881,298.453 24.667 C 298.321 24.504,298.031 24.435,297.625 24.468 L 297.000 24.520 297.000 25.588 C 297.000 26.701,296.803 27.000,296.069 27.000 C 295.911 27.000,295.505 27.300,295.167 27.667 C 294.590 28.292,294.493 28.333,293.619 28.333 L 292.686 28.333 292.635 29.042 C 292.583 29.748,292.581 29.750,291.832 29.836 C 291.031 29.929,290.309 30.361,289.993 30.937 C 289.833 31.230,289.601 31.305,288.652 31.373 C 287.346 31.467,287.000 31.672,287.000 32.354 C 287.000 32.810,286.964 32.833,286.265 32.833 C 285.541 32.833,285.528 32.844,285.420 33.477 L 285.312 34.121 284.315 34.226 C 283.060 34.357,282.702 34.548,282.636 35.125 C 282.590 35.529,282.504 35.590,281.919 35.637 C 281.160 35.699,281.006 35.865,281.003 36.625 C 281.000 37.143,280.972 37.167,280.351 37.167 C 279.648 37.167,279.500 37.342,279.500 38.180 C 279.500 38.637,279.459 38.667,278.833 38.667 C 278.171 38.667,278.167 38.671,278.167 39.309 L 278.167 39.951 276.902 40.058 C 275.387 40.186,275.375 40.192,275.238 40.923 C 275.151 41.383,275.052 41.500,274.745 41.500 C 274.017 41.500,273.833 41.670,273.833 42.342 C 273.833 42.974,273.826 42.981,273.125 43.032 C 272.434 43.082,272.415 43.100,272.333 43.750 C 272.252 44.400,272.232 44.418,271.542 44.468 C 270.840 44.519,270.833 44.525,270.833 45.162 C 270.833 45.780,270.808 45.808,270.177 45.915 C 269.371 46.051,269.242 46.448,269.413 48.270 L 269.528 49.500 278.181 49.500 C 286.722 49.500,286.833 49.496,286.833 49.167 C 286.833 48.901,286.944 48.833,287.383 48.833 C 288.076 48.833,288.333 48.579,288.333 47.893 C 288.333 47.376,288.365 47.350,289.042 47.301 C 289.747 47.250,289.750 47.247,289.801 46.542 C 289.852 45.837,289.856 45.833,290.510 45.833 L 291.167 45.833 291.167 45.083 L 291.167 44.333 291.917 44.333 L 292.667 44.333 292.667 43.676 C 292.667 43.022,292.670 43.019,293.375 42.968 C 294.080 42.917,294.084 42.913,294.135 42.208 C 294.184 41.519,294.202 41.500,294.771 41.500 C 295.418 41.500,296.420 40.849,296.588 40.319 C 296.736 39.851,297.404 39.908,297.632 40.406 C 298.207 41.670,298.798 41.079,298.594 39.445 L 298.484 38.562 299.331 37.823 C 299.797 37.416,300.495 36.783,300.881 36.417 C 301.267 36.050,301.807 35.637,302.081 35.499 C 302.355 35.361,302.674 35.051,302.790 34.810 C 302.954 34.467,303.163 34.347,303.742 34.260 C 304.266 34.181,304.513 34.055,304.585 33.829 C 304.816 33.101,305.528 32.833,307.234 32.833 C 308.984 32.833,309.058 32.779,308.674 31.770 C 308.519 31.363,308.537 31.350,309.299 31.300 L 310.083 31.250 310.135 30.542 L 310.186 29.833 311.385 29.831 C 312.806 29.828,312.918 29.770,313.065 28.968 C 313.172 28.384,313.215 28.349,313.881 28.301 C 314.562 28.252,314.585 28.231,314.635 27.625 L 314.687 27.000 315.830 27.000 C 317.368 27.000,317.500 26.933,317.500 26.149 L 317.500 25.500 318.800 25.500 C 320.259 25.500,320.500 25.366,320.500 24.557 L 320.500 24.013 321.875 23.965 L 323.250 23.917 323.301 23.208 L 323.352 22.500 324.681 22.500 C 325.599 22.500,326.030 22.436,326.075 22.292 C 326.110 22.177,326.184 21.877,326.239 21.625 C 326.335 21.188,326.386 21.167,327.326 21.167 C 328.778 21.167,329.167 20.974,329.167 20.254 L 329.167 19.667 330.320 19.667 C 331.820 19.667,331.982 19.590,332.105 18.822 L 332.207 18.179 333.562 18.131 L 334.917 18.083 334.968 17.381 L 335.019 16.679 336.468 16.631 L 337.917 16.583 337.968 15.958 L 338.020 15.333 339.854 15.333 C 342.014 15.333,342.333 15.214,342.333 14.411 L 342.333 13.833 344.300 13.833 C 346.474 13.833,346.667 13.756,346.667 12.883 L 346.667 12.333 348.570 12.333 C 350.685 12.333,351.000 12.268,351.000 11.829 C 351.000 11.061,351.128 11.000,352.747 11.000 C 355.073 11.000,355.315 10.923,355.439 10.146 L 355.543 9.500 357.313 9.498 C 359.707 9.495,359.833 9.452,359.833 8.647 L 359.833 8.000 362.550 8.000 C 365.530 8.000,365.667 7.958,365.667 7.050 L 365.667 6.500 368.505 6.500 C 371.058 6.500,371.354 6.471,371.447 6.208 C 371.800 5.209,371.962 5.167,375.487 5.165 C 378.924 5.163,379.994 5.070,380.084 4.768 C 380.114 4.666,380.182 4.385,380.235 4.142 L 380.331 3.701 385.624 3.638 C 391.374 3.569,391.602 3.533,391.777 2.658 L 391.875 2.167 395.164 2.167 C 396.973 2.167,398.801 2.119,399.227 2.061 L 400.000 1.955 400.000 0.977 L 400.000 0.000 388.750 0.000 C 377.850 0.000,377.500 0.010,377.500 0.313 " stroke="none" fill="#de6a1b" fill-rule="evenodd"></path></g></svg>