<?xml version="1.0" encoding="UTF-8"?>
<!DOCTYPE svg PUBLIC "-//W3C//DTD SVG 1.1//EN" "http://www.w3.org/Graphics/SVG/1.1/DTD/svg11.dtd">
<svg xmlns="http://www.w3.org/2000/svg" version="1.1" width="274px" height="34px" style="shape-rendering:geometricPrecision; text-rendering:geometricPrecision; image-rendering:optimizeQuality; fill-rule:evenodd; clip-rule:evenodd" xmlns:xlink="http://www.w3.org/1999/xlink">
<g><path style="opacity:0.659" fill="#e97c1f" d="M 258.5,-0.5 C 263.5,-0.5 268.5,-0.5 273.5,-0.5C 273.5,-0.166667 273.5,0.166667 273.5,0.5C 258.753,1.58262 244.42,4.58262 230.5,9.5C 227.5,9.5 224.5,9.5 221.5,9.5C 233.549,5.0712 245.883,1.73787 258.5,-0.5 Z"/></g>
<g><path style="opacity:0.807" fill="#fefffe" d="M 106.5,33.5 C 103.5,33.5 100.5,33.5 97.5,33.5C 97.4894,31.9826 96.8228,30.8159 95.5,30C 88.8417,29.5004 82.175,29.3337 75.5,29.5C 75.4802,27.857 76.1468,26.5237 77.5,25.5C 82.1315,24.6717 86.7982,24.1717 91.5,24C 89.3056,21.3053 87.3056,18.472 85.5,15.5C 86.8149,13.6841 88.3149,12.0175 90,10.5C 95.7437,18.0636 101.244,25.7303 106.5,33.5 Z"/></g>
<g><path style="opacity:0.799" fill="#fefffe" d="M 28.5,33.5 C 19.5,33.5 10.5,33.5 1.5,33.5C 1.16667,32.5 0.5,31.8333 -0.5,31.5C -0.5,30.5 -0.5,29.5 -0.5,28.5C 7.83333,28.5 16.1667,28.5 24.5,28.5C 24.5,27.1667 24.5,25.8333 24.5,24.5C 17.1591,24.6663 9.82577,24.4997 2.5,24C 1.27988,22.4747 0.613218,20.6413 0.5,18.5C 0.287959,15.9886 0.954626,13.8219 2.5,12C 10.8333,11.3333 19.1667,11.3333 27.5,12C 29.8633,12.5885 30.8633,14.0885 30.5,16.5C 22.5,16.5 14.5,16.5 6.5,16.5C 6.5,17.5 6.5,18.5 6.5,19.5C 14.2792,19.0679 21.9458,19.5679 29.5,21C 32.2905,25.4216 31.9572,29.5882 28.5,33.5 Z"/></g>
<g><path style="opacity:0.818" fill="#fefffe" d="M 45.5,33.5 C 43.1667,33.5 40.8333,33.5 38.5,33.5C 38.5,26.1667 38.5,18.8333 38.5,11.5C 47.8393,11.3335 57.1726,11.5002 66.5,12C 67.4162,12.3742 68.2496,12.8742 69,13.5C 69.7886,17.0915 69.6219,20.5915 68.5,24C 60.9458,25.4321 53.2792,25.9321 45.5,25.5C 45.5,28.1667 45.5,30.8333 45.5,33.5 Z M 45.5,16.5 C 51.1667,16.5 56.8333,16.5 62.5,16.5C 62.5,17.8333 62.5,19.1667 62.5,20.5C 56.8333,20.5 51.1667,20.5 45.5,20.5C 45.5,19.1667 45.5,17.8333 45.5,16.5 Z"/></g>
<g><path style="opacity:0.786" fill="#fefffe" d="M 138.5,33.5 C 129.5,33.5 120.5,33.5 111.5,33.5C 109.914,30.2974 109.247,26.7974 109.5,23C 109.667,20.1667 109.833,17.3333 110,14.5C 110.308,13.6919 110.808,13.0253 111.5,12.5C 120.452,11.3614 129.452,11.1948 138.5,12C 140.037,13.1096 140.703,14.6096 140.5,16.5C 132.493,16.3336 124.493,16.5003 116.5,17C 117.833,20.6667 117.833,24.3333 116.5,28C 124.493,28.4997 132.493,28.6664 140.5,28.5C 140.608,30.5138 139.942,32.1805 138.5,33.5 Z"/></g>
<g><path style="opacity:0.781" fill="#fefffe" d="M 148.5,11.5 C 158.5,11.5 168.5,11.5 178.5,11.5C 178.5,13.1667 178.5,14.8333 178.5,16.5C 168.5,16.5 158.5,16.5 148.5,16.5C 148.5,14.8333 148.5,13.1667 148.5,11.5 Z"/></g>
<g><path style="opacity:0.815" fill="#fefdfc" d="M 203.5,16.5 C 202.833,16.5 202.5,16.8333 202.5,17.5C 201.833,17.5 201.5,17.8333 201.5,18.5C 200.833,18.5 200.5,18.8333 200.5,19.5C 199.508,19.3284 198.842,19.6618 198.5,20.5C 193.445,19.1331 189.112,16.4665 185.5,12.5C 192.49,10.2275 198.49,11.5608 203.5,16.5 Z"/></g>
<g><path style="opacity:0.744" fill="#fefffe" d="M 178.5,33.5 C 168.5,33.5 158.5,33.5 148.5,33.5C 148.5,28.5 148.5,23.5 148.5,18.5C 155.5,18.5 162.5,18.5 169.5,18.5C 169.5,20.1667 169.5,21.8333 169.5,23.5C 165.167,23.5 160.833,23.5 156.5,23.5C 156.5,25.1667 156.5,26.8333 156.5,28.5C 163.833,28.5 171.167,28.5 178.5,28.5C 178.5,30.1667 178.5,31.8333 178.5,33.5 Z"/></g>
<g><path style="opacity:0.841" fill="#d9621a" d="M 221.5,9.5 C 224.5,9.5 227.5,9.5 230.5,9.5C 223.337,13.2471 216.337,17.2471 209.5,21.5C 208.833,21.5 208.5,21.8333 208.5,22.5C 207.833,22.5 207.5,22.8333 207.5,23.5C 207.167,23.5 206.833,23.5 206.5,23.5C 205.833,23.5 205.5,23.8333 205.5,24.5C 204.833,24.5 204.5,24.8333 204.5,25.5C 203.833,25.5 203.5,25.8333 203.5,26.5C 200.216,28.117 197.549,30.4503 195.5,33.5C 191.833,33.5 188.167,33.5 184.5,33.5C 185.203,31.2843 186.536,29.451 188.5,28C 191.734,25.2519 195.068,22.7519 198.5,20.5C 199.492,20.6716 200.158,20.3382 200.5,19.5C 201.167,19.5 201.5,19.1667 201.5,18.5C 202.167,18.5 202.5,18.1667 202.5,17.5C 202.5,16.8333 202.833,16.5 203.5,16.5C 203.435,16.9382 203.601,17.2716 204,17.5C 209.542,14.1451 215.375,11.4784 221.5,9.5 Z"/></g>
<g><path style="opacity:0.829" fill="#fefcfb" d="M 209.5,21.5 C 215.145,24.8246 220.145,28.8246 224.5,33.5C 220.5,33.5 216.5,33.5 212.5,33.5C 209.786,30.7846 206.786,28.4512 203.5,26.5C 204.167,26.5 204.5,26.1667 204.5,25.5C 205.167,25.5 205.5,25.1667 205.5,24.5C 206.167,24.5 206.5,24.1667 206.5,23.5C 206.833,23.5 207.167,23.5 207.5,23.5C 208.167,23.5 208.5,23.1667 208.5,22.5C 209.167,22.5 209.5,22.1667 209.5,21.5 Z"/></g>
</svg>
