<svg id="svg" version="1.1" xmlns="http://www.w3.org/2000/svg" xmlns:xlink="http://www.w3.org/1999/xlink" width="400" height="49.63503649635037" viewBox="0, 0, 400,49.63503649635037"><g id="svgg"><path id="path0" d="M130.878 15.328 C 130.684 15.508,130.478 15.808,130.418 15.994 C 130.350 16.209,130.167 16.333,129.917 16.333 C 129.457 16.333,129.022 16.723,128.811 17.323 C 128.729 17.558,128.443 17.875,128.175 18.028 C 127.846 18.216,127.620 18.533,127.477 19.010 C 127.349 19.438,127.145 19.747,126.960 19.796 C 126.791 19.840,126.545 20.086,126.412 20.343 C 126.274 20.609,125.926 20.899,125.603 21.016 C 124.163 21.536,123.876 25.311,125.237 25.828 C 125.483 25.922,125.762 26.238,125.909 26.591 C 126.073 26.983,126.332 27.258,126.653 27.379 C 127.143 27.564,127.327 27.904,127.331 28.633 C 127.334 29.194,127.745 29.896,128.217 30.149 C 128.443 30.270,128.696 30.603,128.778 30.890 C 128.870 31.210,129.117 31.507,129.422 31.663 C 130.050 31.985,130.126 32.097,130.263 32.910 C 130.403 33.736,130.772 34.318,131.279 34.511 C 131.492 34.592,131.667 34.770,131.667 34.907 C 131.667 35.123,130.560 35.161,123.125 35.203 C 112.986 35.259,113.470 35.171,112.835 37.079 C 112.560 37.904,112.397 38.167,112.160 38.167 C 111.987 38.167,111.712 38.307,111.548 38.479 C 111.384 38.651,111.100 38.840,110.917 38.899 C 110.257 39.110,109.608 40.880,109.736 42.123 C 109.968 44.389,110.685 45.037,112.583 44.693 C 113.234 44.576,117.685 44.507,125.333 44.496 C 138.647 44.477,138.643 44.476,139.186 45.539 C 139.371 45.900,139.667 46.202,139.892 46.259 C 140.137 46.320,140.386 46.599,140.571 47.018 C 140.788 47.509,140.986 47.706,141.335 47.775 C 141.755 47.859,141.819 47.960,141.919 48.685 L 142.031 49.500 149.790 49.500 L 157.549 49.500 157.446 48.286 C 157.321 46.806,157.000 46.117,156.276 45.774 C 155.973 45.630,155.639 45.321,155.532 45.087 C 155.425 44.853,155.150 44.576,154.919 44.471 C 154.656 44.351,154.500 44.143,154.500 43.912 C 154.500 43.466,153.901 42.667,153.568 42.667 C 153.435 42.667,153.238 42.460,153.131 42.208 C 152.848 41.545,152.492 41.167,152.149 41.167 C 151.868 41.167,151.504 40.337,151.501 39.692 C 151.499 39.343,150.861 38.531,150.496 38.415 C 150.315 38.358,150.167 38.200,150.167 38.064 C 150.167 37.592,149.676 36.872,149.288 36.774 C 149.059 36.717,148.798 36.451,148.657 36.130 C 148.512 35.800,148.202 35.489,147.875 35.345 C 147.577 35.214,147.333 35.038,147.333 34.954 C 147.333 34.271,146.756 32.958,146.380 32.786 C 146.132 32.673,145.830 32.298,145.650 31.878 C 145.456 31.426,145.187 31.103,144.917 31.000 C 144.683 30.911,144.448 30.706,144.394 30.544 C 144.098 29.646,143.622 28.812,143.277 28.586 C 143.061 28.444,142.795 28.030,142.686 27.665 C 142.550 27.210,142.332 26.922,141.994 26.747 C 141.717 26.603,141.393 26.233,141.253 25.899 C 141.091 25.511,140.832 25.241,140.503 25.117 C 140.226 25.012,140.000 24.849,140.000 24.754 C 140.000 24.438,139.122 22.920,138.813 22.702 C 138.646 22.584,138.432 22.200,138.337 21.848 C 138.211 21.380,138.022 21.138,137.637 20.952 C 137.294 20.785,137.047 20.503,136.930 20.140 C 136.812 19.774,136.577 19.507,136.247 19.362 C 135.835 19.180,135.691 18.960,135.451 18.145 C 135.213 17.339,135.050 17.087,134.592 16.816 C 134.271 16.627,133.949 16.260,133.847 15.969 C 133.499 14.970,131.682 14.578,130.878 15.328 M6.750 16.330 C 5.042 16.474,4.010 16.796,3.803 17.251 C 3.700 17.475,3.367 17.678,2.889 17.805 C 2.248 17.977,2.101 18.099,1.891 18.634 C 1.736 19.028,1.468 19.340,1.173 19.470 C 0.285 19.864,0.250 20.158,0.250 27.278 L 0.250 33.806 0.654 34.237 C 0.876 34.473,1.184 34.667,1.338 34.667 C 1.512 34.667,1.676 34.872,1.770 35.208 C 1.879 35.596,2.101 35.838,2.548 36.057 C 2.892 36.226,3.289 36.586,3.428 36.856 C 3.904 37.775,3.404 37.746,19.875 37.799 L 35.167 37.848 35.167 39.424 L 35.167 41.000 17.847 41.000 C 8.321 41.000,0.409 41.046,0.264 41.101 C -0.040 41.218,-0.138 47.412,0.155 47.961 C 0.239 48.120,0.348 48.377,0.396 48.532 C 0.681 49.463,-0.504 49.413,22.382 49.461 C 45.397 49.509,44.474 49.548,44.933 48.508 C 45.114 48.098,45.365 47.820,45.608 47.759 C 46.190 47.613,46.470 47.044,46.599 45.750 C 46.687 44.868,46.807 44.491,47.089 44.204 C 48.188 43.089,48.135 35.811,47.019 34.596 C 46.832 34.393,46.655 33.872,46.589 33.333 C 46.405 31.833,46.209 31.391,45.594 31.099 C 45.258 30.940,44.995 30.670,44.932 30.420 C 44.783 29.825,44.211 29.517,43.023 29.393 C 42.160 29.303,41.924 29.207,41.618 28.824 C 40.917 27.947,40.992 27.952,25.792 27.876 L 11.667 27.806 11.667 26.905 L 11.667 26.005 27.875 25.961 L 44.083 25.917 44.875 25.367 C 45.310 25.065,45.667 24.739,45.667 24.643 C 45.667 24.547,45.833 24.235,46.036 23.950 C 46.736 22.966,46.251 20.332,45.284 19.866 C 45.036 19.746,44.627 19.390,44.375 19.074 C 44.123 18.758,43.831 18.500,43.726 18.500 C 43.621 18.500,43.494 18.392,43.443 18.259 C 43.393 18.127,43.039 17.925,42.659 17.811 C 42.278 17.697,41.861 17.442,41.731 17.244 C 41.362 16.681,40.741 16.489,38.759 16.325 C 36.680 16.152,8.808 16.157,6.750 16.330 M58.333 16.334 C 56.633 16.644,56.360 16.880,55.848 18.483 C 55.723 18.874,55.667 23.782,55.667 34.275 L 55.667 49.500 62.083 49.500 L 68.500 49.500 68.500 44.346 L 68.500 39.191 82.792 39.135 C 98.337 39.075,97.947 39.099,98.669 38.158 C 98.833 37.944,99.255 37.774,99.870 37.674 C 101.114 37.472,101.479 37.259,101.769 36.564 C 101.901 36.248,102.184 35.909,102.398 35.811 C 103.403 35.353,103.655 33.696,103.660 27.500 C 103.665 21.541,103.447 20.073,102.479 19.572 C 102.218 19.438,101.958 19.140,101.900 18.911 C 101.740 18.270,101.080 17.859,100.021 17.739 C 99.199 17.646,99.031 17.565,98.791 17.148 C 98.639 16.881,98.304 16.571,98.049 16.459 C 97.503 16.218,59.621 16.099,58.333 16.334 M166.417 16.319 C 164.853 16.434,164.304 16.650,164.025 17.262 C 163.903 17.530,163.650 17.656,163.057 17.745 C 161.609 17.962,161.201 18.342,160.907 19.750 C 160.711 20.685,160.644 20.833,160.417 20.833 C 160.292 20.833,160.016 21.077,159.803 21.375 L 159.417 21.917 159.417 33.583 L 159.417 45.250 159.874 46.064 C 160.125 46.512,160.438 46.962,160.570 47.064 C 160.702 47.166,160.889 47.557,160.987 47.932 C 161.420 49.590,160.099 49.498,183.481 49.499 C 206.112 49.500,204.948 49.558,205.504 48.409 C 205.692 48.020,205.985 47.666,206.156 47.621 C 207.367 47.304,207.552 42.145,206.380 41.377 C 205.960 41.102,204.858 41.080,189.297 41.036 L 172.663 40.989 172.790 40.536 C 172.860 40.287,172.917 36.915,172.917 33.042 L 172.917 26.000 189.281 26.000 C 199.277 26.000,205.808 25.938,206.064 25.841 C 207.505 25.293,207.582 19.890,206.156 19.362 C 205.978 19.296,205.693 18.981,205.523 18.663 C 205.305 18.253,205.024 18.021,204.565 17.871 C 204.209 17.755,203.767 17.484,203.583 17.269 C 202.701 16.238,203.257 16.268,184.750 16.238 C 175.492 16.222,167.242 16.259,166.417 16.319 M218.433 16.348 C 216.436 16.645,216.285 17.025,216.363 21.564 C 216.424 25.188,216.468 25.331,217.666 25.794 C 218.476 26.106,259.768 26.256,261.201 25.952 C 262.467 25.683,262.583 25.279,262.583 21.159 C 262.583 17.217,262.510 16.887,261.533 16.451 C 260.989 16.208,220.031 16.110,218.433 16.348 M272.311 16.332 C 270.791 16.598,270.336 17.254,270.334 19.183 C 270.333 20.553,270.577 21.103,271.333 21.437 C 271.684 21.591,272.068 21.900,272.187 22.122 C 272.455 22.622,272.840 22.834,273.912 23.072 C 274.530 23.209,274.763 23.343,274.807 23.587 C 274.892 24.048,275.328 24.500,275.688 24.500 C 275.855 24.500,276.105 24.720,276.245 24.990 C 276.553 25.586,277.113 26.000,277.611 26.000 C 277.815 26.000,278.083 26.146,278.209 26.325 C 278.485 26.720,279.806 27.495,280.206 27.498 C 280.379 27.499,280.594 27.737,280.740 28.086 C 280.925 28.528,281.113 28.698,281.506 28.776 C 281.831 28.841,282.079 29.019,282.167 29.252 C 282.359 29.755,283.125 30.333,283.600 30.333 C 283.814 30.333,284.064 30.475,284.157 30.649 C 284.702 31.668,286.656 32.193,288.001 31.682 C 288.505 31.490,289.050 31.333,289.212 31.333 C 289.375 31.333,289.833 31.034,290.230 30.667 C 290.640 30.289,291.197 29.955,291.518 29.894 C 292.332 29.739,292.667 29.531,292.667 29.181 C 292.667 28.747,292.987 28.533,293.842 28.396 C 294.383 28.309,294.759 28.105,295.235 27.639 C 295.593 27.287,295.979 27.000,296.091 27.000 C 296.515 27.000,297.000 26.398,297.098 25.750 C 297.234 24.862,297.445 24.500,297.829 24.500 C 298.004 24.500,298.194 24.424,298.252 24.331 C 298.309 24.237,298.439 24.212,298.540 24.275 C 298.660 24.349,298.684 24.287,298.611 24.095 C 298.549 23.934,298.453 23.622,298.398 23.401 C 298.291 22.975,296.925 22.167,296.312 22.167 C 296.132 22.167,295.814 21.998,295.605 21.792 C 295.127 21.319,293.960 20.667,293.594 20.667 C 293.436 20.667,293.242 20.454,293.144 20.172 C 293.026 19.836,292.762 19.586,292.316 19.389 C 291.943 19.224,291.522 18.866,291.341 18.559 C 291.114 18.174,290.858 17.988,290.448 17.912 C 290.105 17.847,289.796 17.658,289.680 17.442 C 289.574 17.243,289.133 16.894,288.702 16.667 L 287.917 16.254 280.500 16.225 C 276.421 16.209,272.736 16.257,272.311 16.332 M90.667 27.667 L 90.667 29.333 79.583 29.333 L 68.500 29.333 68.500 27.667 L 68.500 26.000 79.583 26.000 L 90.667 26.000 90.667 27.667 M218.750 26.496 C 216.236 26.809,216.425 25.845,216.369 38.625 L 216.322 49.500 239.411 49.500 L 262.500 49.500 262.500 46.624 L 262.500 43.748 261.958 42.875 C 260.963 41.269,261.677 41.333,244.815 41.333 L 230.417 41.334 230.455 38.792 L 230.494 36.250 238.713 36.167 C 247.577 36.077,247.001 36.135,248.112 35.216 C 249.743 33.868,249.486 28.002,247.749 26.930 L 246.917 26.417 233.333 26.394 C 225.862 26.382,219.300 26.428,218.750 26.496 M308.662 32.456 C 308.445 32.607,307.745 32.740,306.881 32.794 C 305.490 32.881,305.443 32.898,304.854 33.525 C 304.487 33.915,304.034 34.207,303.699 34.270 C 303.372 34.332,303.036 34.544,302.873 34.794 C 302.721 35.025,302.375 35.349,302.103 35.514 C 301.568 35.840,300.360 36.855,299.243 37.917 C 298.702 38.431,298.514 38.754,298.419 39.333 C 298.351 39.746,298.220 40.177,298.127 40.292 C 298.013 40.434,298.017 40.500,298.141 40.500 C 298.241 40.500,298.279 40.613,298.226 40.751 C 298.051 41.209,298.623 41.822,299.330 41.936 C 299.762 42.005,300.077 42.176,300.247 42.435 C 300.509 42.836,301.633 43.500,302.049 43.500 C 302.175 43.500,302.459 43.781,302.681 44.125 C 302.913 44.484,303.245 44.773,303.461 44.803 C 303.673 44.834,303.945 45.066,304.084 45.335 C 304.388 45.922,304.950 46.333,305.448 46.333 C 305.653 46.333,305.898 46.475,305.990 46.649 C 306.184 47.010,307.514 47.833,307.903 47.833 C 308.047 47.833,308.296 48.115,308.458 48.458 C 308.944 49.491,308.828 49.480,319.708 49.491 L 329.500 49.500 329.500 48.264 C 329.500 46.502,328.574 45.353,327.136 45.330 C 327.015 45.328,326.804 45.084,326.667 44.788 C 326.497 44.423,326.232 44.190,325.841 44.064 C 325.462 43.942,325.216 43.732,325.123 43.453 C 325.033 43.183,324.717 42.904,324.254 42.686 C 323.853 42.498,323.480 42.198,323.423 42.021 C 323.321 41.698,322.532 41.304,321.576 41.098 C 321.216 41.020,321.014 40.844,320.881 40.491 C 320.758 40.165,320.486 39.907,320.091 39.742 C 319.760 39.604,319.406 39.309,319.305 39.087 C 319.133 38.710,318.271 38.167,317.846 38.167 C 317.744 38.167,317.578 37.988,317.479 37.770 C 317.321 37.424,316.420 36.903,315.456 36.601 C 315.294 36.550,315.087 36.313,314.996 36.074 C 314.891 35.797,314.596 35.547,314.184 35.385 C 313.828 35.245,313.438 34.945,313.316 34.718 C 313.096 34.306,312.377 33.834,311.967 33.832 C 311.424 33.830,310.521 33.472,310.586 33.286 C 310.812 32.642,309.317 31.997,308.662 32.456 " stroke="none" fill="#fcfcfc" fill-rule="evenodd"></path><path id="path1" d="M373.917 0.179 C 370.148 0.313,369.230 0.496,368.656 1.225 C 368.356 1.607,368.246 1.624,365.464 1.710 C 362.390 1.805,361.677 1.955,361.257 2.596 C 361.015 2.965,360.881 3.000,359.704 3.006 C 356.219 3.021,354.350 3.381,354.022 4.102 C 353.862 4.454,353.729 4.501,352.879 4.505 C 349.930 4.518,348.355 4.871,348.027 5.590 C 347.876 5.921,347.703 5.956,345.724 6.047 C 343.281 6.160,342.591 6.346,342.292 6.974 C 342.115 7.345,341.959 7.423,341.332 7.457 C 339.048 7.579,338.542 7.689,337.696 8.246 C 336.992 8.709,336.631 8.823,335.550 8.921 C 334.835 8.986,333.935 9.180,333.551 9.353 C 333.166 9.525,332.775 9.667,332.682 9.667 C 332.588 9.667,332.436 9.808,332.344 9.980 C 332.212 10.227,331.904 10.317,330.880 10.408 C 329.071 10.569,328.362 10.783,327.855 11.324 C 327.504 11.698,327.224 11.809,326.446 11.884 C 325.284 11.997,323.705 12.616,323.581 13.007 C 323.515 13.217,323.211 13.317,322.391 13.401 C 321.151 13.528,320.405 13.846,320.257 14.310 C 320.159 14.619,319.458 14.827,318.500 14.832 C 318.271 14.833,317.647 15.137,317.114 15.507 C 316.528 15.913,315.823 16.240,315.331 16.334 C 314.208 16.547,313.392 16.912,313.188 17.293 C 313.063 17.527,312.707 17.665,311.883 17.800 C 310.899 17.962,310.684 18.063,310.250 18.576 C 309.967 18.910,309.596 19.167,309.396 19.167 C 308.555 19.167,307.936 19.421,307.310 20.023 C 306.841 20.473,306.492 20.667,306.148 20.667 C 305.436 20.667,304.568 21.074,304.252 21.557 C 304.062 21.848,303.767 22.008,303.281 22.084 C 302.078 22.273,301.526 22.535,301.329 23.012 C 301.149 23.444,299.773 23.931,298.809 23.902 C 298.633 23.897,298.568 23.983,298.628 24.141 C 298.687 24.294,298.653 24.345,298.540 24.275 C 298.439 24.212,298.309 24.237,298.252 24.331 C 298.194 24.424,298.004 24.500,297.829 24.500 C 297.445 24.500,297.234 24.862,297.098 25.750 C 297.000 26.398,296.515 27.000,296.091 27.000 C 295.979 27.000,295.593 27.287,295.235 27.639 C 294.759 28.105,294.383 28.309,293.842 28.396 C 292.987 28.533,292.667 28.747,292.667 29.181 C 292.667 29.531,292.332 29.739,291.518 29.894 C 291.197 29.955,290.640 30.289,290.230 30.667 C 289.833 31.034,289.382 31.333,289.229 31.333 C 288.803 31.333,287.000 32.026,287.000 32.189 C 287.000 32.268,286.785 32.333,286.522 32.333 C 285.986 32.333,285.237 32.848,285.087 33.321 C 285.033 33.493,284.790 33.683,284.547 33.744 C 283.867 33.915,282.667 34.671,282.667 34.929 C 282.667 35.056,282.460 35.204,282.208 35.258 C 281.338 35.445,280.968 35.676,280.791 36.143 C 280.675 36.450,280.436 36.665,280.099 36.765 C 279.743 36.869,279.488 37.111,279.278 37.542 C 279.089 37.928,278.855 38.167,278.665 38.167 C 278.332 38.167,277.667 38.903,277.667 39.272 C 277.667 39.398,277.549 39.500,277.406 39.500 C 276.799 39.500,275.476 40.229,275.234 40.697 C 275.097 40.962,274.733 41.299,274.425 41.446 C 274.118 41.593,273.786 41.888,273.689 42.102 C 273.591 42.316,273.240 42.604,272.909 42.742 C 272.520 42.905,272.242 43.166,272.124 43.478 C 272.007 43.788,271.718 44.060,271.320 44.236 C 270.867 44.436,270.629 44.685,270.439 45.158 C 270.297 45.515,270.035 45.853,269.858 45.909 C 269.681 45.965,269.445 46.231,269.333 46.500 C 269.144 46.958,269.157 47.306,269.429 48.875 L 269.536 49.500 278.331 49.500 C 288.094 49.500,288.098 49.500,288.601 48.454 C 288.744 48.159,289.098 47.804,289.388 47.667 C 289.679 47.529,290.029 47.175,290.167 46.879 C 290.304 46.583,290.536 46.339,290.683 46.337 C 291.014 46.332,291.423 45.891,291.651 45.291 C 291.754 45.021,291.951 44.833,292.131 44.833 C 292.504 44.833,293.167 44.244,293.167 43.912 C 293.167 43.780,293.432 43.560,293.756 43.425 C 294.160 43.256,294.423 42.993,294.592 42.589 C 294.745 42.222,294.952 42.000,295.140 42.000 C 295.455 42.000,296.052 41.436,296.207 40.992 C 296.379 40.498,297.500 40.297,297.828 40.701 C 298.079 41.011,298.123 41.020,298.217 40.776 C 298.276 40.623,298.242 40.500,298.141 40.500 C 298.017 40.500,298.013 40.434,298.127 40.292 C 298.220 40.177,298.351 39.746,298.419 39.333 C 298.514 38.754,298.702 38.431,299.243 37.917 C 300.360 36.855,301.568 35.840,302.103 35.514 C 302.375 35.349,302.721 35.025,302.873 34.794 C 303.036 34.544,303.372 34.332,303.699 34.270 C 304.034 34.207,304.487 33.915,304.854 33.525 C 305.443 32.898,305.491 32.881,306.871 32.795 C 307.763 32.739,308.436 32.607,308.697 32.436 C 308.924 32.287,309.164 32.220,309.230 32.286 C 309.297 32.352,309.306 32.289,309.251 32.146 C 309.178 31.957,309.301 31.844,309.701 31.732 C 310.069 31.629,310.332 31.408,310.500 31.059 C 310.702 30.639,310.934 30.484,311.711 30.251 C 312.325 30.067,312.795 29.803,313.012 29.523 C 313.198 29.281,313.665 28.969,314.048 28.829 C 314.445 28.684,314.829 28.405,314.941 28.181 C 315.193 27.674,315.471 27.506,316.058 27.503 C 316.752 27.499,317.544 27.067,317.853 26.525 C 318.086 26.115,318.251 26.038,319.081 25.952 C 320.037 25.854,320.833 25.378,320.833 24.906 C 320.833 24.795,321.115 24.653,321.458 24.591 C 322.745 24.359,323.264 24.132,323.520 23.686 C 323.715 23.345,324.031 23.166,324.826 22.945 C 325.549 22.744,326.009 22.501,326.308 22.160 C 326.546 21.889,326.902 21.667,327.100 21.667 C 327.937 21.667,328.574 21.415,329.122 20.867 C 329.534 20.455,329.934 20.241,330.478 20.141 C 331.604 19.935,332.101 19.694,332.300 19.256 C 332.446 18.936,332.652 18.848,333.486 18.752 C 334.529 18.631,335.235 18.240,335.411 17.686 C 335.485 17.452,335.741 17.356,336.502 17.276 C 337.610 17.160,338.064 16.942,338.307 16.407 C 338.446 16.103,338.664 16.028,339.694 15.930 C 341.573 15.752,342.126 15.562,342.420 14.994 C 342.560 14.722,342.730 14.499,342.796 14.497 C 344.906 14.445,346.723 13.943,346.908 13.360 C 346.989 13.104,347.237 13.031,348.306 12.949 C 349.826 12.831,350.418 12.637,351.030 12.053 C 351.409 11.691,351.711 11.603,353.030 11.471 C 354.560 11.318,355.134 11.101,355.663 10.476 C 355.852 10.254,356.260 10.152,357.250 10.078 C 358.890 9.955,359.865 9.628,360.085 9.127 C 360.236 8.781,360.401 8.739,362.083 8.622 C 364.409 8.460,365.530 8.150,365.831 7.588 C 366.049 7.180,366.109 7.167,367.755 7.167 C 370.115 7.167,371.147 6.954,371.667 6.361 L 372.083 5.886 375.430 5.714 C 378.920 5.535,379.732 5.354,380.333 4.621 C 380.557 4.349,381.018 4.301,384.667 4.171 C 389.253 4.008,390.966 3.734,391.587 3.064 C 391.887 2.739,392.120 2.667,392.859 2.667 C 394.056 2.667,399.660 2.191,399.851 2.073 C 399.933 2.022,400.000 1.535,400.000 0.990 L 400.000 0.000 388.708 0.027 C 382.498 0.042,375.842 0.110,373.917 0.179 " stroke="none" fill="#de6a1b" fill-rule="evenodd"></path></g></svg>